<svg xmlns="http://www.w3.org/2000/svg" width="253.333" height="253.333" viewBox="0 0 190 190" preserveAspectRatio="xMidYMid meet" xmlns:v="https://vecta.io/nano"><path d="M79 11.1c0 .5.7.9 1.5.9s1.5.4 1.5 1c0 .5.9 1 2 1 3.1 0 2.3-1.4-1.5-2.6-1.9-.6-3.5-.7-3.5-.3zm19.3-.4c1.5.2 3.7.2 5 0 1.2-.2 0-.4-2.8-.4-2.7 0-3.8.2-2.2.4zm9.1 2.8c-2.8 1.9-10.3 4.5-13.1 4.5-1.3 0-2.3.4-2.3 1 0 1.7 4.9 1.1 9.2-1.1 2.8-1.4 5.2-1.9 7.4-1.6 2.3.4 3.4.1 3.8-1 .8-2.1.7-2.5-.4-1.8-.5.3-1 .1-1-.4 0-1.5-1.2-1.4-3.6.4zm-41.5 1.6c-1 .6-1 .9-.1.9.6 0 1.2.9 1.2 2 0 1 .8 2.3 1.7 2.9 1 .5 1.5 1.2 1.2 1.6-.4.3-1.5-.2-2.5-1.2-.9-1-2.1-1.8-2.6-1.8s-1.2-.5-1.6-1c-1.4-2-4.3-.9-6.2 2.3-1.2 2-2.5 3-3.2 2.6-.7-.5-.8-.3-.4.5.5.8.1 1.4-1.1 1.7-2.5.7-6.1 7.2-6.7 12.3-.3 2.4-.9 4.8-1.4 5.4-2.7 3.4-2 13.2 1.4 20.9 1.8 4 2.8 4.7 3.8 2.5.3-.6.4 0 .1 1.5-.3 1.7 0 3 .8 3.5.8.4 1.7 2 2.1 3.5.5 2.3.2 3-2.1 4.2-3.3 1.8-7.1 5.7-7.5 7.7-.2.8-.7 1.7-1.2 2.1-.6.4-.5 1.7.2 3.3.7 1.4 1.2 3.4 1.2 4.4s1.1 2.4 2.5 3.1c1.5.8 2.5 2.2 2.5 3.6 0 1.2.7 2.5 1.6 2.8 2.4.9 6.2.7 6.9-.4.3-.5 1.4-1 2.4-1 3.5 0 4.6-2.6 2.8-6.8-2.3-5.4-3.7-13.3-3.7-21.1 0-7.3.5-8.1 5.3-8.1 1.2 0 3.1-.7 4.1-1.5 3.1-2.4 3.7-1.7 1 1-1.3 1.4-2.8 2.4-3.2 2.2-.4-.1-.7.2-.7.8 0 .5 4.7.9 11 1 9.1 0 11-.3 11.1-1.5 0-.8.2-2.1.2-2.8.1-.7 1.6-1.8 3.2-2.3 1.7-.6 3-1.7 3-2.5 0-1.7.7-1.7 4.9-.3 2.3.8 4.4.8 7.4.1 5.5-1.4 12.4.3 16.6 4.1 3.6 3.1 3.5 2.8 1.6 17.2-2.1 16.3-2.8 17.9-15.6 35-3.9 5.2-7.2 10.6-8.8 14-.5 1.1-2.1 3.3-3.5 4.8S93 142 93 143.1s-1.1 3.5-2.4 5.2c-3.2 4.3-6.6 11.2-6.6 13.5 0 1-1.3 3.6-3 5.8-2.6 3.6-10 19.6-10 21.6 0 .4 2.1.8 4.8.8l4.7-.1 8-11c4.4-6.1 9.9-13.5 12.3-16.5 4.3-5.5 5.2-7.7 2.8-6.8-.7.3-1.6-.2-2-1.2-.5-1.4-.1-1.6 2.6-1.2 2.3.4 3.8-.1 5.2-1.4 3.9-3.6 5.2-3.9 7.4-1.5l2.1 2.3-2.7 2.9c-3.5 3.8-26.2 33.2-26.2 34 0 .3 15.7.5 34.9.5 27 0 35-.3 35.4-1.3.4-.9.6-.9.6 0 .2 2.1 2.1 1.5 2.1-.6 0-2.7-1-5.1-2.2-5.1-.5 0-.6.4-.3 1 .3.5.1 1-.5 1-1.3 0-.3-4.3 1.1-4.8 1.1-.4-2.9-6.9-4.6-7.6-.9-.3-1.5-1.8-1.5-3.6 0-1.6-.4-3-.9-3s-1.1-.8-1.3-1.7c-.2-1.2-1.4-1.7-4.6-1.7-2.3-.1-4.2.2-4.2.6s-.7.5-1.5.1c-2.5-.9.6-3.6 6-5.2 6.4-1.9 6.8-3.4.9-3.1-2.7.2-5.5.2-6.1.1-1.6-.1-1.7-2.8-.2-3.3.6-.2-.2-1.6-1.7-3.1s-3-2.5-3.3-2.2c-.3.4.1 1 .9 1.5 1.9 1.2.8 2.2-1.5 1.4-1.3-.5-1.6-1.4-1.1-3.8.5-2.8.4-2.9-.8-1.3-1 1.2-1.6 1.5-2.1.7-.8-1.2 1.5-3.3 5.7-5.1 2-.8 3.6-.8 5.9 0 1.8.6 3.4.9 3.6.7 1-1-2.1-4.9-6.8-8.5-4-3.2-4.6-4.1-3.4-4.9 1.4-.7 1.2-1.2-1-3.6-1.4-1.5-3.2-2.5-4-2.3-.7.3-1.6-.1-1.9-.9s-1.2-1.4-2.1-1.4c-1.1 0-1.5-1.1-1.5-4.5 0-2.4-.7-6.2-1.5-8.3-2-4.8-.7-9.2 2.6-9.2 1.1 0 3.3-.9 4.9-2 2.2-1.6 2.9-3 3.5-7.5.7-6.3-.7-12.1-3.3-12.9-1.2-.4-1.7-1.8-1.8-5.1-.1-4.1.1-4.4 2.2-3.9 1.7.4 2.4 0 3-1.8.4-1.2.7-2.8.6-3.4-.1-.7.4-3.8 1.3-6.9.8-3.2 1.2-7 .9-8.4-.8-3.3-8.2-11.1-10.6-11.1-1.1 0-3.8-1-6.1-2.2-4.4-2.2-18-6.8-20.3-6.8-2.8 0-1.3 1.9 2.4 3.1 4.7 1.5 6.2 2.7 5.5 4.5-.3 1 .2 1.4 1.9 1.4 2.6 0 9.5 4 8.7 5.1-.2.4.6 1.5 1.8 2.5 3.2 2.8 6.9 10.3 7.6 15.2.3 2.4.1 4-.4 3.6-.5-.3-.9-1.1-.9-1.9 0-.7-1.6-2.7-3.5-4.4-2-1.7-3.1-3.1-2.5-3.1.5 0 1-.7 1-1.5s-.3-1.4-.7-1.3c-.7.1-8.8-3.4-14.3-6.2-1.6-.9-1.6-1-.6-5.2.5-2.2.3-2.6-.9-2.2-.9.4-1.5 1.9-1.5 3.6 0 2.8-.2 3-3 2.5-8.3-1.7-15.8-1.8-22-.4-4.1 1-6.7 1.2-7.1.6-.8-1.4.1-5.9 1.3-5.9.5 0 .6-.9.3-2.1-.5-1.6-.3-2 1.2-1.9 1 .1 2.5.2 3.3.1 1.3-.1 1.3-.3 0-1.2s-1.3-1 .1-.6c.9.3 2.2.1 3-.3.7-.5 1.8-.5 2.4 0 .7.6 1.1.2 1.2-1.1.1-1.2-.5-1.9-1.7-1.9-2.6 0-3.3-2.8-1-4 2.8-1.5 2.6-3.3-.2-2.4-5.2 1.7-15.8 1.2-15.8-.7 0-.5 1.1-1.5 2.5-2.1S74 15.4 74 15c0-.9-6.5-.9-8.1.1zM79.5 24c1.4 0 2.5.3 2.5.8 0 .4-1.9.6-4.3.4-3-.3-4.7-1-5.5-2.3C71 21 71 21 73.9 22.5c1.7.8 4.1 1.5 5.6 1.5zM75 33.5c0 .8-.7 1.5-1.6 1.5-1.3 0-1.5.8-1.2 4 .3 3.8.2 4-3.2 5.2-1.9.6-4 1.8-4.6 2.5-.9 1.3-1.2 1.2-2.4-.2-1.5-1.9-.1-5.2 2-4.7.6.1.9-.2.6-.7-.4-.5.8-2.3 2.5-3.9l4.3-4c1.6-1.6 3.6-1.4 3.6.3zm33.1 12.2c10 3.3 8.5 4-3.7 1.9-10.9-1.9-17.9-2-26.4-.1-8.3 1.8-9.3 1.8-5-.2 11.1-4.9 23.4-5.5 35.1-1.6zm-48.5 3.1c.8.5.4 1.3-1.2 2.5-2.7 2-3.2 1.6-.8-.7.8-.9 1.1-1.6.5-1.6s-1.7 1.3-2.6 3c-.9 1.6-2 3-2.5 3-1.6 0-1.2-1.5 1.1-4.4 2.1-2.7 3.5-3.1 5.5-1.8zM55.5 104c.3.5-.1 1-1 1s-1.3-.5-1-1c.3-.6.8-1 1-1s.7.4 1 1zm32.7-78.9c.5 1.6 1.7 2.9 2.5 2.9s1.1-.5.8-1.1c-.4-.6-.1-1 .6-.8 2.5.3 3.9-.1 3.9-1.1 0-.5-.7-.7-1.5-.4s-2.7-.1-4.4-.9l-2.9-1.5 1 2.9z"/><use href="#B"/><path d="M97.3 68.8c-1.1 2.8 1.1 4.7 5.3 4.4 7.3-.5 11.4-1.4 11.4-2.5 0-.5-.3-.8-.6-.4-.4.3-1.9 0-3.5-.9-4.2-2.1-11.9-2.5-12.6-.6zM101 75c0 .6.7 1 1.5 1s1.5-.2 1.5-.4-.7-.6-1.5-1c-.8-.3-1.5-.1-1.5.4zm3.6 14.5c.4.8.9 1.5 1.3 1.5.7 0 3.1 4.4 3.1 5.5 0 .3-1.8.8-4 1.1-3.8.6-5 1.7-3.2 2.8 1.2.7 10.5-2.9 11-4.2.4-1.2-6.4-8.2-7.9-8.2-.4 0-.6.7-.3 1.5zm-21.6.3c0 .9 5.5 4.7 7.2 4.9 1 .2 2.6-.6 3.5-1.7 1-1.1 2.3-2 3-2s1.3-.3 1.3-.8c0-.4-3.4-.7-7.5-.7l-7.5.3zm-11.4 2.5c-2.2 1.3-4.1 2.8-4.3 3.3-.2.6 2.8 2.5 6.6 4.1 6.7 3 6.9 3 7.4 1.1.4-1.3 1-1.7 1.8-1.3 1.1.8 6.1 1 10.4.5 3.2-.3-2.2-1.8-7.1-1.9-2.3-.1-5.6-.4-7.4-.7-3-.7-3.2-.9-2.7-4 .7-4 .4-4-4.7-1.1z"/><use href="#B" x="12" y="62"/><path d="M86.7 110.7c-1.6 1.5-.4 2.3 3.6 2.3 3.9-.1 4.1-.2 2.3-1.5-2.1-1.6-4.8-2-5.9-.8zm-.2 12.3c2.8 1.2 7.3 1.2 8 0 .4-.6-1.4-1-4.7-.9-3.9 0-4.8.3-3.3.9zm-21.2 3.3c-6.8 2.4-9.3 4.2-13.9 10.2-4.1 5.4-5.4 7.9-5.4 10.8 0 3.1-4.7 15.6-6.6 17.8-.8.8-1.4 3.1-1.4 5.1 0 1.9-1.3 6.1-2.9 9.4-1.6 3.2-3.2 6.9-3.6 8.1l-.6 2.3h16.9 17l1.1-9.3c1.7-13.1 3.8-22.7 5.5-24.6 3.8-4.3 6.5-23.2 3.8-26.4-.6-.7-.9-2.3-.5-3.5.7-2.8-1.1-2.8-9.4.1zm-5.8 23.9l-1.7 2.3.6-2.5c.3-1.4.6-3.4.7-4.5 0-1.9.1-1.9 1.1.2.8 1.6.6 2.7-.7 4.5z"/><defs ><path id="B" d="M86 37a1.08 1.08 0 0 0 1 1c.6 0 1-.5 1-1a.94.94 0 0 0-1-1c-.5 0-1 .4-1 1z"/></defs></svg>